<?xml version="1.0" standalone="yes"?>

<svg xmlns="http://www.w3.org/2000/svg" width="800" height="800" viewBox="120 100 500 610">
<path style="fill:#eb574b; stroke:none;" d="M368 112L368 128L384 128L384 144L400 144L400 160L416 160L416 144L432 144L432 128L448 128L448 112L416 112L416 144L400 144L400 112L368 112z"/>
<path style="fill:#ede577; stroke:none;" d="M304 128L304 144L320 144L320 128L304 128z"/>
<path style="fill:#fff997; stroke:none;" d="M320 128L320 144L272 144L272 192L288 192L288 208L304 208L304 224L352 224L352 240L304 240L304 336L320 336L320 320L352 320L352 304L368 304L368 320L384 320L384 336L400 336L400 352L416 352L416 336L400 336L400 320L432 320L432 304L464 304L464 320L480 320L480 288L544 288L544 304L512 304L512 320L496 320L496 336L480 336L480 368L496 368L496 384L512 384L512 352L528 352L528 336L544 336L544 320L560 320L560 288L576 288L576 336L592 336L592 320L608 320L608 272L576 272L576 224L560 224L560 208L544 208L544 192L512 192L512 176L480 176L480 192L464 192L464 176L400 176L400 160L384 160L384 176L400 176L400 192L384 192L384 208L368 208L368 176L352 176L352 144L336 144L336 128L320 128z"/>
<path style="fill:#ede577; stroke:none;" d="M336 128L336 144L352 144L352 128L336 128z"/>
<path style="fill:#f9f18b; stroke:none;" d="M352 144L352 160L368 160L368 176L384 176L384 160L368 160L368 144L352 144z"/>
<path style="fill:#ede577; stroke:none;" d="M368 144L368 160L384 160L384 144L368 144z"/>
<path style="fill:#010101; stroke:none;" d="M384 144L384 160L400 160L400 144L384 144z"/>
<path style="fill:#ebd373; stroke:none;" d="M256 160L256 176L240 176L240 224L256 224L256 176L272 176L272 160L256 160z"/>
<path style="fill:#ede577; stroke:none;" d="M352 160L352 176L368 176L368 160L352 160z"/>
<path style="fill:#c94b41; stroke:none;" d="M400 160L400 176L416 176L416 160L400 160z"/>
<path style="fill:#ebd373; stroke:none;" d="M416 160L416 176L432 176L432 160L416 160z"/>
<path style="fill:#f9f18b; stroke:none;" d="M432 160L432 176L464 176L464 192L480 192L480 176L464 176L464 160L432 160z"/>
<path style="fill:#ebd373; stroke:none;" d="M464 160L464 176L496 176L496 160L464 160z"/>
<path style="fill:#ede577; stroke:none;" d="M256 176L256 240L272 240L272 256L288 256L288 192L272 192L272 176L256 176M368 176L368 192L384 192L384 176L368 176z"/>
<path style="fill:#c94b41; stroke:none;" d="M384 176L384 192L400 192L400 176L384 176z"/>
<path style="fill:#ebd373; stroke:none;" d="M512 176L512 192L528 192L528 176L512 176z"/>
<path style="fill:#c94b41; stroke:none;" d="M368 192L368 208L384 208L384 192L368 192z"/>
<path style="fill:#ebd373; stroke:none;" d="M544 192L544 208L560 208L560 192L544 192z"/>
<path style="fill:#f9f18b; stroke:none;" d="M288 208L288 240L304 240L304 208L288 208z"/>
<path style="fill:#ebd373; stroke:none;" d="M560 208L560 224L576 224L576 208L560 208z"/>
<path style="fill:#fff997; stroke:none;" d="M240 224L240 240L256 240L256 272L272 272L272 240L256 240L256 224L240 224z"/>
<path style="fill:#c94b41; stroke:none;" d="M304 224L304 240L336 240L336 224L304 224z"/>
<path style="fill:#eb574b; stroke:none;" d="M336 224L336 240L352 240L352 224L336 224z"/>
<path style="fill:#ebd373; stroke:none;" d="M240 240L240 272L256 272L256 240L240 240z"/>
<path style="fill:#eb574b; stroke:none;" d="M288 240L288 256L304 256L304 240L288 240z"/>
<path style="fill:#ebd373; stroke:none;" d="M576 240L576 272L592 272L592 240L576 240z"/>
<path style="fill:#f9f18b; stroke:none;" d="M272 256L272 272L288 272L288 256L272 256z"/>
<path style="fill:#ebd373; stroke:none;" d="M288 256L288 288L304 288L304 256L288 256M256 272L256 304L240 304L240 320L272 320L272 272L256 272z"/>
<path style="fill:#ede577; stroke:none;" d="M272 272L272 288L288 288L288 272L272 272M544 272L544 288L560 288L560 272L544 272z"/>
<path style="fill:#ebd373; stroke:none;" d="M224 288L224 304L240 304L240 288L224 288z"/>
<path style="fill:#fff997; stroke:none;" d="M272 288L272 320L288 320L288 288L272 288z"/>
<path style="fill:#f9f18b; stroke:none;" d="M288 288L288 304L304 304L304 288L288 288z"/>
<path style="fill:#ebd373; stroke:none;" d="M480 288L480 304L512 304L512 288L480 288z"/>
<path style="fill:#f9f18b; stroke:none;" d="M512 288L512 304L544 304L544 288L512 288z"/>
<path style="fill:#ede577; stroke:none;" d="M560 288L560 304L576 304L576 288L560 288M288 304L288 320L256 320L256 336L288 336L288 320L304 320L304 304L288 304M352 304L352 320L336 320L336 336L320 336L320 352L304 352L304 368L272 368L272 448L256 448L256 496L272 496L272 544L288 544L288 560L272 560L272 576L256 576L256 592L224 592L224 608L240 608L240 624L272 624L272 608L304 608L304 576L320 576L320 528L288 528L288 480L320 480L320 464L304 464L304 400L320 400L320 352L336 352L336 336L368 336L368 304L352 304z"/>
<path style="fill:#f9f18b; stroke:none;" d="M432 304L432 320L448 320L448 336L464 336L464 320L448 320L448 304L432 304z"/>
<path style="fill:#ede577; stroke:none;" d="M448 304L448 320L464 320L464 304L448 304M480 304L480 336L496 336L496 320L512 320L512 304L480 304z"/>
<path style="fill:#f9f18b; stroke:none;" d="M560 304L560 320L576 320L576 304L560 304z"/>
<path style="fill:#ebd373; stroke:none;" d="M288 320L288 336L272 336L272 352L288 352L288 336L304 336L304 320L288 320z"/>
<path style="fill:#f9f18b; stroke:none;" d="M320 320L320 336L336 336L336 320L320 320M368 320L368 336L384 336L384 352L400 352L400 336L384 336L384 320L368 320z"/>
<path style="fill:#f7e1c3; stroke:none;" d="M400 320L400 336L432 336L432 352L464 352L464 336L448 336L448 320L400 320z"/>
<path style="fill:#ebd373; stroke:none;" d="M464 320L464 352L480 352L480 320L464 320z"/>
<path style="fill:#bfad91; stroke:none;" d="M544 320L544 336L576 336L576 320L544 320z"/>
<path style="fill:#f9f18b; stroke:none;" d="M592 320L592 336L608 336L608 320L592 320M288 336L288 352L272 352L272 368L304 368L304 352L320 352L320 336L288 336z"/>
<path style="fill:#b57537; stroke:none;" d="M336 336L336 384L368 384L368 400L400 400L400 368L384 368L384 352L368 352L368 336L336 336z"/>
<path style="fill:#81552d; stroke:none;" d="M368 336L368 352L384 352L384 336L368 336z"/>
<path style="fill:#d9c3a3; stroke:none;" d="M416 336L416 352L432 352L432 368L464 368L464 352L432 352L432 336L416 336z"/>
<path style="fill:#5b3901; stroke:none;" d="M528 336L528 352L560 352L560 336L528 336z"/>
<path style="fill:#d9c3a3; stroke:none;" d="M560 336L560 352L576 352L576 336L560 336z"/>
<path style="fill:#5b3901; stroke:none;" d="M576 336L576 384L560 384L560 400L480 400L480 416L560 416L560 400L576 400L576 384L592 384L592 336L576 336z"/>
<path style="fill:#ebd373; stroke:none;" d="M592 336L592 368L608 368L608 336L592 336z"/>
<path style="fill:#81552d; stroke:none;" d="M320 352L320 368L336 368L336 352L320 352z"/>
<path style="fill:#5b3901; stroke:none;" d="M384 352L384 368L400 368L400 400L384 400L384 464L352 464L352 480L400 480L400 416L416 416L416 352L384 352z"/>
<path style="fill:#ede577; stroke:none;" d="M416 352L416 384L432 384L432 400L448 400L448 384L464 384L464 416L480 416L480 384L496 384L496 368L480 368L480 384L464 384L464 368L432 368L432 352L416 352z"/>
<path style="fill:#5b3901; stroke:none;" d="M464 352L464 384L480 384L480 352L464 352z"/>
<path style="fill:#f9f18b; stroke:none;" d="M512 352L512 368L528 368L528 352L512 352z"/>
<path style="fill:#ffffff; stroke:none;" d="M528 352L528 384L544 384L544 352L528 352z"/>
<path style="fill:#8fdf5d; stroke:none;" d="M544 352L544 384L560 384L560 352L544 352z"/>
<path style="fill:#f7e1c3; stroke:none;" d="M560 352L560 384L576 384L576 352L560 352z"/>
<path style="fill:#ebd373; stroke:none;" d="M256 368L256 432L240 432L240 464L256 464L256 432L272 432L272 368L256 368z"/>
<path style="fill:#5b3901; stroke:none;" d="M320 368L320 400L304 400L304 448L320 448L320 400L336 400L336 368L320 368z"/>
<path style="fill:#bfad91; stroke:none;" d="M512 368L512 384L528 384L528 368L512 368z"/>
<path style="fill:#67ffe3; stroke:none;" d="M336 384L336 400L352 400L352 384L336 384z"/>
<path style="fill:#81552d; stroke:none;" d="M352 384L352 400L368 400L368 432L384 432L384 400L368 400L368 384L352 384z"/>
<path style="fill:#f9f18b; stroke:none;" d="M416 384L416 416L448 416L448 400L432 400L432 384L416 384z"/>
<path style="fill:#5b3901; stroke:none;" d="M448 384L448 400L464 400L464 384L448 384z"/>
<path style="fill:#f9f18b; stroke:none;" d="M480 384L480 400L512 400L512 384L480 384z"/>
<path style="fill:#d9c3a3; stroke:none;" d="M512 384L512 400L528 400L528 384L512 384z"/>
<path style="fill:#f7e1c3; stroke:none;" d="M528 384L528 400L560 400L560 384L528 384z"/>
<path style="fill:#81552d; stroke:none;" d="M320 400L320 416L336 416L336 400L320 400z"/>
<path style="fill:#b57537; stroke:none;" d="M336 400L336 416L320 416L320 448L336 448L336 464L384 464L384 432L336 432L336 416L352 416L352 400L336 400z"/>
<path style="fill:#5b3901; stroke:none;" d="M352 400L352 416L336 416L336 432L368 432L368 400L352 400z"/>
<path style="fill:#479b93; stroke:none;" d="M448 400L448 416L464 416L464 400L448 400M400 416L400 432L416 432L416 416L400 416z"/>
<path style="fill:#eb574b; stroke:none;" d="M416 416L416 432L432 432L432 416L416 416z"/>
<path style="fill:#55c7bb; stroke:none;" d="M432 416L432 432L464 432L464 416L432 416z"/>
<path style="fill:#adbf87; stroke:none;" d="M464 416L464 432L480 432L480 416L464 416z"/>
<path style="fill:#55c7bb; stroke:none;" d="M480 416L480 432L496 432L496 416L480 416z"/>
<path style="fill:#479b93; stroke:none;" d="M496 416L496 432L512 432L512 416L496 416z"/>
<path style="fill:#f9f18b; stroke:none;" d="M256 432L256 448L272 448L272 432L256 432z"/>
<path style="fill:#55c7bb; stroke:none;" d="M400 432L400 448L416 448L416 432L400 432z"/>
<path style="fill:#e7ffb9; stroke:none;" d="M416 432L416 448L400 448L400 464L416 464L416 448L432 448L432 432L416 432z"/>
<path style="fill:#adbf87; stroke:none;" d="M432 432L432 448L448 448L448 464L464 464L464 448L448 448L448 432L432 432z"/>
<path style="fill:#e7ffb9; stroke:none;" d="M448 432L448 448L480 448L480 432L448 432z"/>
<path style="fill:#eb574b; stroke:none;" d="M480 432L480 448L464 448L464 464L480 464L480 448L496 448L496 432L480 432z"/>
<path style="fill:#adbf87; stroke:none;" d="M496 432L496 448L512 448L512 432L496 432z"/>
<path style="fill:#fff997; stroke:none;" d="M304 448L304 464L320 464L320 448L304 448z"/>
<path style="fill:#81552d; stroke:none;" d="M320 448L320 480L352 480L352 464L336 464L336 448L320 448z"/>
<path style="fill:#43abcf; stroke:none;" d="M416 448L416 464L400 464L400 480L336 480L336 512L352 512L352 528L400 528L400 512L416 512L416 480L448 480L448 448L416 448z"/>
<path style="fill:#f7e1c3; stroke:none;" d="M480 448L480 464L448 464L448 496L496 496L496 480L512 480L512 448L480 448z"/>
<path style="fill:#f9f18b; stroke:none;" d="M240 464L240 480L256 480L256 464L240 464z"/>
<path style="fill:#ebd373; stroke:none;" d="M240 480L240 528L256 528L256 560L240 560L240 576L224 576L224 592L192 592L192 608L208 608L208 624L240 624L240 640L272 640L272 624L304 624L304 608L320 608L320 576L304 576L304 608L272 608L272 624L240 624L240 608L224 608L224 592L240 592L240 576L256 576L256 560L272 560L272 528L256 528L256 480L240 480z"/>
<path style="fill:#fff997; stroke:none;" d="M288 480L288 496L304 496L304 480L288 480z"/>
<path style="fill:#216981; stroke:none;" d="M304 480L304 496L320 496L320 480L304 480z"/>
<path style="fill:#318faf; stroke:none;" d="M320 480L320 544L336 544L336 576L400 576L400 528L416 528L416 512L400 512L400 528L352 528L352 512L336 512L336 480L320 480z"/>
<path style="fill:#5b3901; stroke:none;" d="M416 480L416 496L448 496L448 480L416 480z"/>
<path style="fill:#f9f18b; stroke:none;" d="M256 496L256 512L272 512L272 496L256 496M288 496L288 528L304 528L304 496L288 496z"/>
<path style="fill:#5b3901; stroke:none;" d="M304 496L304 528L320 528L320 496L304 496z"/>
<path style="fill:#216981; stroke:none;" d="M416 496L416 560L464 560L464 544L480 544L480 528L448 528L448 512L432 512L432 496L416 496z"/>
<path style="fill:#318faf; stroke:none;" d="M432 496L432 512L448 512L448 528L480 528L480 496L432 496z"/>
<path style="fill:#5b3901; stroke:none;" d="M480 496L480 528L496 528L496 496L480 496z"/>
<path style="fill:#fff997; stroke:none;" d="M256 512L256 528L272 528L272 512L256 512z"/>
<path style="fill:#5b3901; stroke:none;" d="M400 528L400 576L384 576L384 608L400 608L400 576L448 576L448 560L416 560L416 528L400 528z"/>
<path style="fill:#f9f18b; stroke:none;" d="M272 544L272 560L288 560L288 544L272 544z"/>
<path style="fill:#5b3901; stroke:none;" d="M320 544L320 576L336 576L336 640L352 640L352 576L336 576L336 544L320 544z"/>
<path style="fill:#c3c3d1; stroke:none;" d="M464 544L464 560L448 560L448 576L400 576L400 608L384 608L384 624L400 624L400 640L336 640L336 576L320 576L320 608L304 608L304 624L272 624L272 640L240 640L240 624L208 624L208 608L192 608L192 592L224 592L224 576L240 576L240 560L208 560L208 576L160 576L160 592L144 592L144 608L128 608L128 640L144 640L144 656L160 656L160 672L208 672L208 688L272 688L272 704L464 704L464 688L528 688L528 672L576 672L576 656L592 656L592 640L608 640L608 608L592 608L592 592L576 592L576 576L528 576L528 560L480 560L480 544L464 544z"/>
<path style="fill:#fff997; stroke:none;" d="M256 560L256 576L272 576L272 560L256 560M240 576L240 592L256 592L256 576L240 576z"/>
<path style="fill:#e5f9ff; stroke:none;" d="M352 576L352 592L384 592L384 576L352 576z"/>
<path style="fill:#f7fbfd; stroke:none;" d="M352 592L352 608L384 608L384 592L352 592z"/>
<path style="fill:#f7e1c3; stroke:none;" d="M352 608L352 624L384 624L384 608L352 608z"/>
<path style="fill:#b57537; stroke:none;" d="M352 624L352 640L400 640L400 624L352 624z"/>
</svg>
